<?xml version="1.0" encoding="UTF-8"?><svg id="IAC_2022_COLOR" xmlns="http://www.w3.org/2000/svg" xmlns:xlink="http://www.w3.org/1999/xlink" viewBox="0 0 244.913 244.913"><defs><style>.cls-1,.cls-2{fill:#002855;}.cls-3,.cls-4{fill:#002856;}.cls-5,.cls-6{fill:#009cdd;}.cls-7{clip-rule:evenodd;}.cls-7,.cls-8,.cls-9{fill:none;}.cls-8{stroke:#fed141;stroke-miterlimit:10;}.cls-10{fill:#fed141;}.cls-10,.cls-6,.cls-11,.cls-2,.cls-4{fill-rule:evenodd;}.cls-11{fill:#fff;}.cls-9{clip-path:url(#clippath);}</style><clipPath id="clippath"><path id="semicirculo_celeste-2" class="cls-7" d="m122.16,122.531v86.172h0c-47.332,0-86.052-38.907-86.052-86.172S74.828,36.357,122.16,36.357v86.174Z"/></clipPath></defs><g id="circulo_blanco_exterior"><path class="cls-11" d="m122.49,243.847C55.537,243.847,1.067,189.406,1.067,122.489S55.537,1.067,122.49,1.067s121.356,54.47,121.356,121.422-54.44,121.357-121.356,121.357Z"/><path class="cls-3" d="m122.489,1.567c32.179,0,62.499,12.604,85.376,35.489,22.88,22.889,35.481,53.23,35.481,85.433,0,66.641-54.216,120.857-120.857,120.857S1.567,189.13,1.567,122.489,55.812,1.567,122.489,1.567m0-1C55.28.567.567,55.344.567,122.489s54.713,121.857,121.922,121.857,121.857-54.713,121.857-121.857S189.568.567,122.489.567h0Z"/></g><g id="circ_azul_oscuro"><path class="cls-4" d="m122.231,209.702c-48.084-.053-87.168-39.086-87.168-87.012S74.147,35.412,122.188,35.359c48.138.053,87.221,39.23,87.221,87.331s-39.083,86.959-87.122,87.012h0s-.055,0-.055,0Z"/><path class="cls-3" d="m122.285,36.358h0c47.537.054,86.123,38.728,86.123,86.332s-38.587,85.96-86.123,86.012h0c-.016,0-.032,0-.048,0-.016,0-.032,0-.048,0h0c-47.538-.053-86.127-38.601-86.127-86.013S74.651,36.412,122.189,36.359h0c.016-.001.032,0,.048,0,.016,0,.032,0,.048,0m0-2h-.052s-2,0-2,0v.024c-47.695,1.096-86.171,40.308-86.171,88.307,0,48.459,39.506,87.93,88.074,88.012h.019s.072,0,.072,0h.004s.055,0,.055,0c48.592-.054,88.123-39.537,88.123-88.013,0-47.984-38.452-87.187-86.123-88.306v-.025h-2Z"/></g><g id="estrellas"><path class="cls-11" d="m156.19,106.78l2.491,6.431c.012.03.035.053.065.065l6.432,2.491c.097.037.097.174,0,.211l-6.432,2.491c-.03.012-.053.035-.065.065l-2.491,6.431c-.037.097-.174.097-.211,0l-2.49-6.431c-.012-.03-.035-.053-.065-.065l-6.432-2.491c-.097-.037-.097-.174,0-.211l6.432-2.491c.03-.012.053-.035.065-.065l2.49-6.431c.037-.097.174-.097.211,0Z"/><path class="cls-11" d="m145.846,96.885l1.141,2.946c.012.03.035.053.065.065l2.946,1.141c.097.037.097.174,0,.211l-2.946,1.141c-.03.012-.053.035-.065.065l-1.141,2.946c-.037.097-.174.097-.211,0l-1.141-2.946c-.012-.03-.035-.053-.065-.065l-2.947-1.141c-.097-.037-.097-.174,0-.211l2.947-1.141c.03-.012.053-.035.065-.065l1.141-2.946c.037-.097.174-.097.211,0Z"/><path class="cls-11" d="m157.315,82.717l1.141,2.946c.012.03.035.053.065.065l2.946,1.141c.097.037.097.174,0,.211l-2.946,1.141c-.03.012-.053.035-.065.065l-1.141,2.946c-.037.097-.174.097-.211,0l-1.141-2.946c-.012-.03-.035-.053-.065-.065l-2.947-1.141c-.097-.037-.097-.174,0-.211l2.947-1.141c.03-.012.053-.035.065-.065l1.141-2.946c.037-.097.174-.097.211,0Z"/><path class="cls-11" d="m133.364,79.793l1.141,2.946c.012.03.035.053.065.065l2.946,1.141c.097.037.097.174,0,.211l-2.946,1.141c-.03.012-.053.035-.065.065l-1.141,2.946c-.037.097-.174.097-.211,0l-1.141-2.946c-.012-.03-.035-.053-.065-.065l-2.947-1.141c-.097-.037-.097-.174,0-.211l2.947-1.141c.03-.012.053-.035.065-.065l1.141-2.946c.037-.097.174-.097.211,0Z"/><path class="cls-11" d="m133.139,58.766l1.267,3.27c.012.03.035.053.065.065l3.271,1.267c.097.037.097.174,0,.211l-3.271,1.267c-.03.012-.053.035-.065.065l-1.267,3.27c-.037.097-.174.097-.211,0l-1.267-3.27c-.012-.03-.035-.053-.065-.065l-3.271-1.267c-.097-.037-.097-.174,0-.211l3.271-1.267c.03-.012.053-.035.065-.065l1.267-3.27c.037-.097.174-.097.211,0Z"/><path class="cls-11" d="m139.446,45.506l1.258,3.262c.011.03.035.053.065.065l3.271,1.267c.15.058.15.153,0,.211l-3.27,1.267c-.03.012-.053.035-.065.065l-1.258,3.278c-.037.097-.174.097-.212,0l-1.275-3.279c-.012-.03-.035-.053-.065-.065l-3.262-1.258c-.097-.037-.097-.174,0-.211l3.263-1.275c.029-.012.053-.035.064-.064l1.275-3.263c.038-.096.174-.096.211,0Z"/><path class="cls-11" d="m161.7,53.931l1.173,3.027c.012.03.035.053.065.065l3.027,1.173c.097.037.097.174,0,.211l-3.027,1.173c-.03.012-.053.035-.065.065l-1.173,3.027c-.037.097-.174.097-.211,0l-1.173-3.027c-.012-.03-.035-.053-.065-.065l-3.027-1.173c-.097-.037-.097-.174,0-.211l3.027-1.173c.03-.012.053-.035.065-.065l1.173-3.027c.037-.097.174-.097.211,0Z"/><path class="cls-11" d="m145.846,70.572l1.958,5.053c.012.03.035.053.065.065l5.053,1.958c.097.037.097.174,0,.211l-5.053,1.958c-.03.012-.053.035-.065.065l-1.958,5.053c-.037.097-.174.097-.211,0l-1.958-5.053c-.012-.03-.035-.053-.065-.065l-5.053-1.958c-.097-.037-.097-.174,0-.211l5.053-1.958c.03-.012.053-.035.065-.065l1.958-5.053c.037-.097.174-.097.211,0Z"/><path class="cls-11" d="m169.234,69.448l1.174,3.027c.012.03.035.053.065.065l3.027,1.173c.097.037.097.174,0,.211l-3.027,1.173c-.03.012-.053.035-.065.065l-1.174,3.027c-.037.097-.174.097-.211,0l-1.174-3.027c-.012-.03-.035-.053-.065-.065l-3.027-1.173c-.097-.037-.097-.174,0-.211l3.027-1.173c.03-.012.053-.035.065-.065l1.174-3.027c.037-.097.174-.097.211,0Z"/><path class="cls-11" d="m184.864,69.898l1.174,3.027c.012.03.035.053.065.065l3.027,1.173c.097.037.097.174,0,.211l-3.027,1.173c-.03.012-.053.035-.065.065l-1.174,3.027c-.037.097-.174.097-.211,0l-1.174-3.027c-.012-.03-.035-.053-.065-.065l-3.027-1.173c-.097-.037-.097-.174,0-.211l3.027-1.173c.03-.012.053-.035.065-.065l1.174-3.027c.037-.097.174-.097.211,0Z"/><path class="cls-11" d="m181.041,80.805l1.991,5.134c.012.03.035.053.065.065l5.133,1.989c.097.037.097.174,0,.211l-5.133,1.989c-.03.012-.053.035-.065.065l-1.991,5.134c-.037.097-.174.097-.211,0l-1.991-5.134c-.012-.03-.035-.053-.065-.065l-5.133-1.989c-.097-.037-.097-.174,0-.211l5.133-1.989c.03-.012.053-.035.065-.065l1.991-5.134c.037-.097.174-.097.211,0Z"/><path class="cls-11" d="m194.534,90.362l1.676,4.324c.012.03.035.053.065.065l4.323,1.675c.097.037.097.174,0,.211l-4.323,1.675c-.03.012-.053.035-.065.065l-1.676,4.324c-.037.097-.174.097-.211,0l-1.676-4.324c-.012-.03-.035-.053-.065-.065l-4.323-1.675c-.097-.037-.097-.174,0-.211l4.323-1.675c.03-.012.053-.035.065-.065l1.676-4.324c.037-.097.174-.097.211,0Z"/><path class="cls-11" d="m185.089,105.205l1.236,3.189c.012.03.035.053.065.065l3.189,1.236c.097.037.097.174,0,.211l-3.189,1.236c-.03.012-.053.035-.065.065l-1.236,3.189c-.037.097-.174.097-.211,0l-1.236-3.189c-.012-.03-.035-.053-.065-.065l-3.189-1.236c-.097-.037-.097-.174,0-.211l3.189-1.236c.03-.012.053-.035.065-.065l1.236-3.189c.037-.097.174-.097.211,0Z"/><path class="cls-11" d="m170.921,122.184l1.236,3.189c.012.03.035.053.065.065l3.189,1.236c.097.037.097.174,0,.211l-3.189,1.236c-.03.012-.053.035-.065.065l-1.236,3.189c-.037.097-.174.097-.211,0l-1.236-3.189c-.012-.03-.035-.053-.065-.065l-3.189-1.236c-.097-.037-.097-.174,0-.211l3.189-1.236c.03-.012.053-.035.065-.065l1.236-3.189c.037-.097.174-.097.211,0Z"/><path class="cls-11" d="m195.771,116.112l1.487,3.837c.012.03.035.053.065.065l3.837,1.487c.097.037.097.174,0,.211l-3.837,1.487c-.03.012-.053.035-.065.065l-1.487,3.837c-.037.097-.174.097-.211,0l-1.487-3.837c-.012-.03-.035-.053-.065-.065l-3.837-1.487c-.097-.037-.097-.174,0-.211l3.837-1.487c.03-.012.053-.035.065-.065l1.487-3.837c.037-.097.174-.097.211,0Z"/><path class="cls-11" d="m140.786,121.51l1.645,4.243c.012.03.035.053.065.065l4.242,1.644c.097.037.097.174,0,.211l-4.242,1.644c-.03.012-.053.035-.065.065l-1.645,4.243c-.037.097-.174.097-.211,0l-1.645-4.243c-.012-.03-.035-.053-.065-.065l-4.242-1.644c-.097-.037-.097-.174,0-.211l4.242-1.644c.03-.012.053-.035.065-.065l1.645-4.243c.037-.097.174-.097.211,0Z"/><path class="cls-11" d="m147.645,159.852l1.927,4.973c.012.03.035.053.065.065l4.971,1.926c.097.037.097.174,0,.211l-4.971,1.926c-.03.012-.053.035-.065.065l-1.927,4.973c-.037.097-.174.097-.211,0l-1.927-4.973c-.012-.03-.035-.053-.065-.065l-4.971-1.926c-.097-.037-.097-.174,0-.211l4.971-1.926c.03-.012.053-.035.065-.065l1.927-4.973c.037-.097.174-.097.211,0Z"/><path class="cls-11" d="m176.543,167.386l1.927,4.973c.012.03.035.053.065.065l4.971,1.926c.097.037.097.174,0,.211l-4.971,1.926c-.03.012-.053.035-.065.065l-1.927,4.973c-.037.097-.174.097-.211,0l-1.927-4.973c-.012-.03-.035-.053-.065-.065l-4.971-1.926c-.097-.037-.097-.174,0-.211l4.971-1.926c.03-.012.053-.035.065-.065l1.927-4.973c.037-.097.174-.097.211,0Z"/><path class="cls-11" d="m180.816,130.73l1.425,3.676c.012.03.035.053.065.065l3.675,1.424c.097.037.097.174,0,.211l-3.675,1.424c-.03.012-.053.035-.065.065l-1.425,3.676c-.037.097-.174.097-.211,0l-1.425-3.676c-.012-.03-.035-.053-.065-.065l-3.675-1.424c-.097-.037-.097-.174,0-.211l3.675-1.424c.03-.012.053-.035.065-.065l1.425-3.676c.037-.097.174-.097.211,0Z"/><path class="cls-11" d="m168.559,157.828l1.425,3.676c.012.03.035.053.065.065l3.675,1.424c.097.037.097.174,0,.211l-3.675,1.424c-.03.012-.053.035-.065.065l-1.425,3.676c-.037.097-.174.097-.211,0l-1.425-3.676c-.012-.03-.035-.053-.065-.065l-3.675-1.424c-.097-.037-.097-.174,0-.211l3.675-1.424c.03-.012.053-.035.065-.065l1.425-3.676c.037-.097.174-.097.211,0Z"/><path class="cls-11" d="m135.163,187.176l1.425,3.676c.012.03.035.053.065.065l3.675,1.424c.097.037.097.174,0,.211l-3.675,1.424c-.03.012-.053.035-.065.065l-1.425,3.676c-.037.097-.174.097-.211,0l-1.425-3.676c-.012-.03-.035-.053-.065-.065l-3.675-1.424c-.097-.037-.097-.174,0-.211l3.675-1.424c.03-.012.053-.035.065-.065l1.425-3.676c.037-.097.174-.097.211,0Z"/><path class="cls-11" d="m151.918,186.839l1.205,3.109c.012.03.035.053.065.065l3.107,1.204c.097.037.097.174,0,.211l-3.107,1.204c-.03.012-.053.035-.065.065l-1.205,3.109c-.037.097-.174.097-.211,0l-1.205-3.109c-.012-.03-.035-.053-.065-.065l-3.107-1.204c-.097-.037-.097-.174,0-.211l3.107-1.204c.03-.012.053-.035.065-.065l1.205-3.109c.037-.097.174-.097.211,0Z"/><path class="cls-11" d="m159.676,176.382l1.205,3.109c.012.03.035.053.065.065l3.107,1.204c.097.037.097.174,0,.211l-3.107,1.204c-.03.012-.053.035-.065.065l-1.205,3.109c-.037.097-.174.097-.211,0l-1.205-3.109c-.012-.03-.035-.053-.065-.065l-3.107-1.204c-.097-.037-.097-.174,0-.211l3.107-1.204c.03-.012.053-.035.065-.065l1.205-3.109c.037-.097.174-.097.211,0Z"/><path class="cls-11" d="m171.933,144.223l1.205,3.108c.012.03.035.053.065.065l3.107,1.204c.097.037.097.174,0,.211l-3.107,1.203c-.03.012-.053.035-.065.065l-1.205,3.109c-.037.097-.174.097-.211,0l-1.205-3.109c-.012-.03-.035-.053-.065-.065l-3.107-1.203c-.097-.037-.097-.174,0-.211l3.107-1.204c.03-.012.053-.035.065-.065l1.205-3.108c.037-.097.174-.097.211,0Z"/><path class="cls-11" d="m191.948,137.251l1.205,3.108c.012.03.035.053.065.065l3.107,1.204c.097.037.097.174,0,.211l-3.107,1.204c-.03.012-.053.035-.065.065l-1.205,3.109c-.037.097-.174.097-.211,0l-1.205-3.109c-.012-.03-.035-.053-.065-.065l-3.107-1.204c-.097-.037-.097-.174,0-.211l3.107-1.204c.03-.012.053-.035.065-.065l1.205-3.108c.037-.097.174-.097.211,0Z"/><path class="cls-11" d="m189.137,152.431l1.205,3.109c.012.03.035.053.065.065l3.107,1.204c.097.037.097.174,0,.211l-3.107,1.204c-.03.012-.053.035-.065.065l-1.205,3.109c-.037.097-.174.097-.211,0l-1.205-3.109c-.012-.03-.035-.053-.065-.065l-3.107-1.204c-.097-.037-.097-.174,0-.211l3.107-1.204c.03-.012.053-.035.065-.065l1.205-3.109c.037-.097.174-.097.211,0Z"/><path class="cls-11" d="m135.276,143.661l1.205,3.108c.012.03.035.053.065.065l3.107,1.204c.097.037.097.174,0,.211l-3.107,1.203c-.03.012-.053.035-.065.065l-1.205,3.109c-.037.097-.174.097-.211,0l-1.205-3.109c-.012-.03-.035-.053-.065-.065l-3.107-1.203c-.097-.037-.097-.174,0-.211l3.107-1.204c.03-.012.053-.035.065-.065l1.205-3.108c.037-.097.174-.097.211,0Z"/><path class="cls-11" d="m132.802,166.824l1.205,3.109c.012.03.035.053.065.065l3.107,1.204c.097.037.097.174,0,.211l-3.107,1.204c-.03.012-.053.035-.065.065l-1.205,3.109c-.037.097-.174.097-.211,0l-1.205-3.109c-.012-.03-.035-.053-.065-.065l-3.107-1.204c-.097-.037-.097-.174,0-.211l3.107-1.204c.03-.012.053-.035.065-.065l1.205-3.109c.037-.097.174-.097.211,0Z"/><path class="cls-11" d="m146.52,136.127l1.016,2.622c.012.03.035.053.065.065l2.622,1.016c.097.037.097.174,0,.211l-2.621,1.015c-.03.012-.053.035-.065.065l-1.016,2.623c-.037.097-.174.097-.211,0l-1.016-2.623c-.012-.03-.035-.053-.065-.065l-2.621-1.015c-.097-.037-.097-.174,0-.211l2.622-1.016c.03-.012.053-.035.065-.065l1.016-2.622c.037-.097.174-.097.211,0Z"/></g><path id="semicirculo_celeste" class="cls-6" d="m122.163,122.531v86.172h0c-47.329,0-86.047-38.907-86.047-86.172S74.833,36.357,122.163,36.357v86.174Z"/><g id="rayos"><g class="cls-9"><line class="cls-8" x1="103.485" y1="212.381" x2="55.084" y2="31.748"/><line class="cls-8" x1="126.036" y1="203.04" x2="32.533" y2="41.089"/><line class="cls-8" x1="145.401" y1="188.181" x2="13.168" y2="55.949"/><line class="cls-8" x1="160.26" y1="168.816" x2="-1.691" y2="75.314"/><line class="cls-8" x1="169.601" y1="146.265" x2="-11.032" y2="97.865"/><line class="cls-8" x1="172.787" y1="122.065" x2="-14.218" y2="122.065"/><line class="cls-8" x1="169.601" y1="97.865" x2="-11.032" y2="146.265"/><line class="cls-8" x1="160.26" y1="75.314" x2="-1.691" y2="168.816"/><line class="cls-8" x1="145.401" y1="55.949" x2="13.168" y2="188.181"/><line class="cls-8" x1="126.036" y1="41.089" x2="32.533" y2="203.04"/><line class="cls-8" x1="103.485" y1="31.748" x2="55.084" y2="212.381"/><line class="cls-8" x1="79.285" y1="28.562" x2="79.285" y2="215.567"/></g></g><g id="sol"><path id="sol_azul" class="cls-2" d="m53.97,153.467c.252-.938.481-1.847.773-2.778.672-2.138,1.562-4.209,2.655-6.166.306-.549.717-1.193.78-1.834.061-.621.066-1.485.286-2.123.493-1.428.911-2.119,1.259-2.963.23-.556.79-1.133,1.165-1.986.308-.486.14-.986-.368-1.172-.164-.06-.876-.167-1.067-.183-.688-.057-1.664.439-2.097-.395-.511-.985.373-2.012.599-2.888.068-.264.134-.452-.039-.681-.18-.238-.712-.384-.972-.488-1.428-.569-2.905-.996-4.336-1.56-.731-.288-1.469-.579-2.245-.71-.82-.139-1.439.053-2.225.195-.787.142-1.638.216-2.439.278-2.027.155-4.114-.439-5.963-1.256-.552-.244-1.159-.479-1.73-.73-.505-.29-.549-.969.603-1.257.512-.128,1.747-.967,2.158-1.299,2.144-1.729,5.165-2.992,8.418-2.751,3.402.321,8.602-1.861,8.602-2.758-.051-.527-.34-1.025-.657-1.438-.232-.302-.752-.611-.574-1.053.194-.48.994-.9,1.388-1.216.274-.219,1.031-.662,1.064-1.063.036-.433-.344-.543-.541-.841-.211-.319-.137-.675-.251-1.033-.151-.472-.307-.944-.523-1.391-.448-.927-1.174-1.608-2.016-2.178-.978-.662-2.011-1.167-2.931-1.931-.93-.773-1.771-1.654-2.495-2.623-.808-1.082-1.468-2.264-2.076-3.467-.266-.527-.47-1.2-.889-1.621-.428-.43-.709-.451-.595-1.075.127-.693,1.124-.57,1.434-.536.937.103,1.586.346,2.521.524.772.147,1.812.216,2.592.303.753.085,1.571.312,2.392.384,1.998.175,3.652,1.711,5.128,2.959.793.671,1.555,1.377,2.342,2.055.77.663,1.737,1.783,2.424,1.783.704-.002.831-2.235.92-2.699.118-.613.215-1.211,1.074-1.063.316.054,2.122.862,2.205.157.116-.985-.003-2.721.463-4.007.467-1.292,1.427-2.283,1.793-3.624.438-1.509.767-2.853.703-4.441-.044-1.083-.204-2.234-.21-3.347-.003-.594.038-1.186.153-1.769.095-.484-.014-1.13.222-1.566.728-1.343,2.46,1.869,2.779,2.315.541.723,1.081,1.447,1.622,2.17,1.636,1.93,3.337,4.139,3.357,6.788,0,2.049.81,3.241.558,5.547-.15,1.646.53,1.999,1.645,1.041.796-.684,1.933-.747,2.743-1.441.584-.571,1.042-.442,1.167.431.275,1.928,1.723,4.216,3.942,2.867,1.877-1.142,3.135-3.233,4.44-4.935.829-1.081,1.864-1.998,2.986-2.766.5-.342,1.029-.635,1.543-.956.498-.311,1.013-.866,1.533-1.103,1.255-.572,4.166-3.527,3.286-.22-.162.324-.356.702-.52,1.01-.261.49-.524.97-.742,1.482-.436,1.023-.761,2.089-1.084,3.152-.506,1.662-.874,3.433-1.586,5.021-.402.898-.904,1.748-1.452,2.564-.274.409-.561.808-.855,1.203-.227.305-.467.657-.778.866-.122.082-.384.369-.308.496.36.602,3.91.214,4.059.917.104.422-.942,1.481-.996,2.309-.092.429.052.767-.135,1.32-.232.688-.577,1.78.62,2.263,4.838,1.95,9.145-1.08,13.965.407,1.13.349,1.924.982,2.95,1.451.766.35,1.599.804,2.44.851.295.016.996.005,1.24.142.291.163.274.554.011.743-.162.116-.365.156-.56.201-1.519.351-2.824,1.32-4.182,2.045-.409.218-1.095.232-1.551.351-.547.142-1.09.304-1.626.483-1.072.359-2.12.791-3.134,1.293-.946.468-1.754,1.107-2.682,1.577-1.053.533-3.788,1.346-4.047,1.384-2.331.335,1.182,3.038-.877,3.499-1.218.273-3.293.885-4.033,1.962-.556.81.233,1.319.824,1.698,1.392.893,2.463,1.417,4.044,2.203,4.625,2.427,4.473,8.41,7.515,11.684.26.28.677.573.769.894.105.367.314.594-.318.888-.303.141-.744-.068-.924-.145-1.378-.591-2.968-.522-4.426-.845-.721-.16-1.729-.753-2.362-1.119-.803-.464-1.264-.86-2.067-1.324-1.135-.656-1.786-1.161-3.008-1.638-1.088-.425-1.801-.753-2.919-.877-.677-.075-2.013-.907-2.423-1.316-.255-.255-.747-.331-1.047-.032-.4.883-.66,1.373-.761,2.375-.204,2.327-4.175-.53-4.722.42-.34.762,2.362,7.306.078,11.417-.538.969-.651,1.967-1.267,3.044-.683,1.493-1.311,3.825-1.206,5.896.013.254.055.8-.011,1.049-.09.344-.538.722-.84.322-.112-.148-.141-.34-.174-.523-.209-1.135-.728-1.937-1.369-2.849-.356-.506-.718-1.007-1.043-1.539-.671-1.095-1.454-2.325-1.79-3.568-.342-1.268-.043-2.706-.546-3.916-2.366-5.684-1.668-7.461-2.052-8.148-.467-.548-1.289.337-2.019,1.067-.369.46-.985.218-1.184-.41-.07-.522-.561-1.243-.778-1.64-.229-.419-.849-.513-.94-.923-.112-.175-.235-.757-.622-1.005-.655-.441-1.179.433-1.578.918-.076.093-.578.497-.709.58-.248.157-.587.252-.809.395-.437.281-.758.845-1.041,1.261-.515.758-1.006,1.533-1.507,2.299-.473.723-.866,1.531-1.469,2.16-.698.729-1.583,1.265-2.494,1.683-1.51.692-3.144,1.126-4.563,1.99-.887.54-1.55,1.343-2.441,1.838-1.04.579-.783-.437-.597-1.045.048-.157.139-.471.181-.63Z"/><path id="sol_amarillo" class="cls-10" d="m55.9,151.447c1.843-4.069,4.326-6.792,4.865-10.922.201-1.537.665-3.012,1.431-4.416.545-.998,2.13-2.047,2.962-2.731,11.345-7.506,1.357-5.965-6.821-4.813-2.733.385-5.685-2.193-8.202-2.123-2.946-.164-5.285.724-8.172-.832-1.008-.543,2.1-1.716,1.549-1.482-1.487.63,2.644-1.264,3.874-1.411,2.321-.279,3.42-.211,5.705-.792,1.658-.422,3.764-1.966,5.443-2.33,2.833-.615,5.098-.718,7.867-.011.476.041,1.916.271,2.228-.301.254-.466-.401-1.041-.687-1.324-1.135-1.125-2.337-1.82-4.25-2.775-1.087-.543-1.308-.812-2.244-1.585-.964-.796-1.792-2.293-2.139-3.495-.187-.648-.97-2.05-1.5-2.427-.909-.646-3.854-2.338-5.167-3.652-.953-.953-1.677-1.767-2.248-2.837-.281-.528-.603-1.141-.723-1.731-.138-.68.072-.799.739-.697,1.745.266,2.826.634,4.76.999.585.11,1.16.29,1.69.561,1.622.829,2.476,1.657,3.672,2.981,1.982,2.195,4.54,2.659,6.409,4.018,2.522,1.834,4.261,5.021,6.563,5.692.62.181.379-.37.391-.442.776-4.597-3.538-9.456-2.634-14.211.381-2.002,1.44-3.426,2.077-5.308,1.015-2.36.134-5.233.465-7.696.563-1.456,4.572,4.704,5.003,12.506.257,4.655,3.45,8.931,2.677,13.833.637,1.562,2.28-1.902,2.53-2.346.57-1.012,1.138-2.036,1.841-2.964,1.159-1.529,2.722-1.539,4.23-2.48,1.576-.983,2.74-2.523,3.876-3.959,1.04-1.315,2.119-2.61,3.349-3.754.644-.599,1.327-1.156,2.053-1.652.706-.482,2.759-2.159,2.103-.308-.364,1.028-1.034,1.973-1.298,3.033-.458,1.838-.826,2.886-1.524,4.658-.864,2.195-3.252,3.028-4.347,5.015-1.44,2.906-2.416,6.504-4.745,9.05-.459.502-1.125.749-.863,1.493.439.604.751.086,1.013-.111,3.736-2.809,9.419-1.656,13.748-.787,3.456.693,7.433-1.831,10.776-.141.642.325,3.829,1.11,2.067,2.066-.687.373-1.548.51-2.295.708-1.759.465-3.648.769-5.263,1.63-1.534.817-2.926,1.935-4.642,2.363-4.454,1.153-9.132-1.334-12.928,1.35-3.363,2.222,1.622,1.372,4.257,5.052.812,1.134,1.54,2.569,2.634,3.567,1.899,1.159,4.068,1.906,5.582,3.366,2.079,1.37,2.468,4.629,3.735,6.864.209.369.387.915.744,1.271.936.932.507,1.671-.789,1.187-1.885-.704-3.368-1.967-4.978-3.113-1.266-.901-2.709-1.504-4.153-2.055-2.789-1.065-5.766-1.934-7.569-4.663-.152-.23-1.498-1.803-2.247-2.339-6.738-4.818-1.273.687-2.687,6.335-1.191,5.045,1.983,9.492.09,14.527-.62,1.65-1.818,3.763-2.075,5.655-.222,1.41-1.317-1.14-1.869-2.172-1.376-2.379-.894-3.884-1.544-6.869-.106-.485-.281-.959-.531-1.388-.928-1.592-1.824-3.246-1.481-5.165.578-2.822-.398-5.376-.601-8.408-.49-7.301-1.962,1.47-4.755,2.99-7.792,3.916-5.522,4.182-10.283,9.982-1.224,1.491-3.217,1.509-4.792,2.366-.476.259-1.128.979-1.695,1.001-.699.027-.474-.616-.256-1.096Zm17.703-18.302c.542-2.517-1.872-.292-1.933-1.202-.06-.899-1.607-1.044-2.044.117-2.116,5.619-6.007,6.561-6.23,9.977-.072,1.094,1.205-1.178,2.851-2.264,2.9-1.915,7.09-5.388,7.356-6.627Zm8.959,12.698c-.289-3.191,1.118-10.742.31-12.431-.104-.218-.462-.111-.537.119-.198.61-.711.876-1.136.663-.379-.19-1.082-.957-1.293-.063-.439,1.86,1.426,7.696,1.239,9.468-.284,2.693,1.758,6.012,1.417,2.245Zm-26.76-20.634c1.642.567,6.874-.132,7.78-.189,1.192-.075,3.706.429,4.359.296,1.286-.261-.96-.975.648-3.455.27-.416-3.089.005-3.976.303-6.782,2.277-12.385,1.81-8.811,3.045Zm20.484,16.814c-.183-2.4-.276-3.024-.557-2.767-.255.082-1.564,1.722-2.023,2.038-.96.66-.774.851-.218,1.751.208.337.442.749.714.925.362.235.637.032.827-.091.293-.19.765-.516.926-.597.515-.255.365-.805.331-1.26Zm-10.537-12.259c-.042-.031-.837.054-1.551.079-1.515.053-3.87.431-4.135.796-.221.305-.987,1.347-.772,1.702.112.186.486.442.672.548.854.485,1.615.759,2.191.01.578-.696,1.29-1.245,1.995-1.857.425-.369,1.837-1.103,1.601-1.278Zm24.886,9.816c-.265-.51-2.025-2.558-2.526-2.469-.108.019-.141.501-.127,1.3.017.938-.029,1.882-.234,2.596-.184,1.081.717.894,1.505,1.081,1.041.248,1.301,0,1.394-.466.098-.489.211-1.612-.012-2.042Zm-32.101-23.923c-.265.265.517,1.386.992,1.624.217.109.424.141.79.102,0,0,1.773-.129,2.469-.321.567-.156-1.893-1.378-2.785-1.903-.507-.299-.831-.14-1.467.497Zm40.24,22.36c1.525-.07-2.865-1.815-4.537-5.044-.854-1.649-4.218-5.173-5.456-4.664-.786.324.222.536.222,1.111,0,.944-.949.262-1.15.968-.335,1.176,1.333,1.18,2.316,1.968,1.259,1.009,6.421,5.761,8.605,5.661Zm-24.225-7.016c7.662,4.427,17.25-3.939,13.553-12.483-3.144-6.349-12.703-7.218-16.905-1.555-2.187,4.843-1.834,10.844,3.352,14.038Zm-6.97-15.941c.336.337,1.843,1.864,2.263.995.176-.365.24-.973.863-1.434.383-.283.16-.797-.012-1.001-1.065-1.257-2.114-1.406-3.65-1.967-1.756-.641-4.282-3.059-5.587-4.177-.984-.843-1.391-1.065-.542.476.433.787,1.939,4.108,4.625,5.646.755.433,1.282.701,2.04,1.461Zm9.151-3.115c.344.207.592-.697,1.117-.58.298.066.402.935,1.197.369,1.115-.794-.784-2.665-1.62-4.774-.463-.784-.976-5.787-1.486-7.478-.239-.79-.407-.967-.555.044-.072.491-.273,1.877-.287,3.002-.042,3.385.534,8.754,1.635,9.417Zm23.887,8.681c4.228.318,3.583-.725-1.823-1.962-1.269-.29-6.703-.654-7.798.155-.302.223-.805.646-.758,1.065.057.519.603-.067.842.236.681.866-.423,1.234.172,1.921.816.943,3.289-1.872,9.366-1.415Zm.631,6.355c-.664-.904-2.122-1.504-4.216-.878-.053.016-1.117.162-1.17.177-.451.121-1.048.154-.662.398.181.114,1.205.795,1.522,1.028.502.368,1.191,1.558,1.524,1.316.347-.251.925-.797,1.405-.92.843-.216,2.163-.35,1.597-1.12Zm-31.456-23.366c-1.363-.801-1.923-1.189-2.022.501-.019.33-.11.815-.132.895-.132.464,1.257,1.028,2.353,2.276.194.222.806.759.845.803.366.407.379.265.372.176-.005-.055-.353-1.741-.361-1.796-.111-.751-.726-2.662-1.054-2.855Zm14.947,9.35c.108.097,1.05-.176,1.627.602.224.302.274.966.773,1.078.571.128,1.288-.955,1.54-1.637.973-2.634,3.382-6.4,3.734-7.283,1.215-3.045-3.84,2.821-5.768,4.566-.826.747-2.066,2.531-1.907,2.674Zm14.259-3.273c-.016-.196-.708-.375-.904-.388-2.286-.155-1.544.1-3.192,3.114-1.088,1.571.057,1.11.487,1.061,2.585-.292,3.201.505,3.353-1.943.064-1.026.288-1.443.256-1.844Zm-12.888-7.609c-.021-.033-.238-.521-.43-.895-.186-.363-.388-.552-.84-.549-.286.002-.777.164-1.004.328-.366.264-.82.434-1.145.757-.416.413-.111.712.086,1.126.22.461.36.953.443,1.456.311,1.883.585,1.502,1.089.918.152-.176.899-.887,1.249-1.103.443-.273.795-.586.973-.929.26-.5-.124-.643-.422-1.107Zm-9.743,27.146c4.2,2.607,9.241-1.071,10.185-5.307.792-3.552-.112-6.346-3.008-7.697-9.807-4.576-16.735,7.072-7.177,13.004Zm-.72-2.821c7.337,6.457,14.17-8.021,4.408-9.309-5.379-.71-8.296,5.887-4.408,9.309Zm3.283-1.147c4.242-.031,5.576-4.718,2.055-5.922-4.499-1.539-7.393,5.961-2.055,5.922Z"/></g><g id="texto_exterior"><circle id="punto_dcha" class="cls-1" cx="152.447" cy="222.616" r="1.985"/><circle id="punto_izq" class="cls-1" cx="93.424" cy="222.616" r="1.985"/><g id="iac"><path class="cls-5" d="m108.863,217.142l.1-.552c.02-.108-.052-.212-.161-.232l-8.878-1.608c-.053-.008-.106.003-.149.033-.044.03-.074.076-.083.129l-.1.551c-.019.104.048.206.152.23,1.444.333,1.972.683,2.161.917.182.228.352.768.12,2.047l-2.394,13.205c-.242,1.338-.579,1.765-.82,1.886-.256.131-.874.252-2.359.09-.109,0-.2.061-.218.164l-.1.551c-.02.108.052.212.161.232l8.877,1.608c.012.002.024.003.036.003.041,0,.08-.013.114-.036.044-.03.074-.076.083-.129l.1-.551c.019-.103-.045-.203-.147-.229-1.446-.37-1.982-.7-2.176-.912-.183-.199-.35-.718-.108-2.055l2.394-13.204c.231-1.28.578-1.727.828-1.875.26-.154.877-.297,2.346-.101.108.017.204-.058.223-.163Z"/><path class="cls-5" d="m129.602,236.865c-.666-.113-1.138-.298-1.401-.547-.187-.179-.528-.683-1.094-2.073l-7.014-17.351c-.03-.073-.1-.122-.179-.125l-.605-.021c-.071.002-.154.043-.188.115l-6.853,14.581c-1.015,2.16-1.729,3.492-2.124,3.959-.372.438-.929.688-1.656.744-.102.008-.181.091-.185.192l-.02.56c-.002.053.017.104.054.144.036.038.086.062.139.063l6.04.206c.049,0,.104-.018.144-.054.039-.037.062-.087.063-.14l.019-.561c.003-.104-.073-.193-.177-.205-.853-.099-1.221-.215-1.379-.294-.337-.171-.494-.462-.479-.892.007-.228.092-.55.252-.957.163-.416.647-1.539,1.482-3.432l7.764.264,1.075,2.818c.161.409.285.799.368,1.159.103.444.12.642.117.729-.019.529-.222.61-.288.636-.168.066-.595.157-1.668.213-.104.006-.186.09-.189.193l-.021.56c-.002.053.017.104.053.144.037.038.086.062.14.063l7.75.263h.007c.051,0,.1-.02.137-.054.039-.037.062-.087.063-.14l.019-.56c.003-.101-.068-.188-.167-.204Zm-8.024-7.466l-6.398-.218,3.464-7.48,2.934,7.698Z"/><path class="cls-5" d="m149.133,230.93l-.647-.464c-.087-.062-.207-.045-.274.039-.754.972-1.477,1.729-2.148,2.252-1.163.921-2.522,1.51-4.04,1.752-2.089.333-3.961-.167-5.565-1.483-1.612-1.323-2.64-3.31-3.054-5.905-.45-2.831-.147-5.185.898-6.997,1.04-1.799,2.599-2.875,4.633-3.199,2.016-.32,3.761.169,5.185,1.455.755.692,1.441,1.669,2.041,2.902.038.08.122.123.211.11l.691-.109c.054-.008.102-.038.133-.083s.043-.101.032-.154l-1.347-6.647c-.021-.104-.128-.172-.228-.157l-.633.102c-.087.014-.154.084-.166.172-.039.296-.151.52-.346.684-.199.171-.426.277-.674.317-.057.005-.354.007-1.947-.175-1.205-.14-2.376-.121-3.482.056-3.17.505-5.611,1.984-7.258,4.398-1.561,2.296-2.115,4.949-1.646,7.887.455,2.869,1.745,5.154,3.834,6.793,1.751,1.37,3.828,2.059,6.195,2.059.693,0,1.411-.06,2.153-.178,1.999-.318,3.793-1.166,5.331-2.521.901-.799,1.634-1.688,2.176-2.643.051-.089.025-.201-.058-.261Z"/></g><g id="into_astrofis_can"><path class="cls-1" d="m92.799,212.323l-8.289-3.164c-.049-.019-.104-.018-.153.004-.049.021-.086.062-.105.111l-.198.521c-.037.098.007.208.103.253,1.329.619,1.786,1.037,1.935,1.279.14.227.206.761-.275,2.023l-4.756,12.46c-.459,1.208-.878,1.581-1.148,1.682-.28.102-.903.132-2.285-.322-.104-.033-.211.02-.25.119l-.197.52c-.039.104.013.219.116.258l8.288,3.163c.023.01.047.014.071.014.081,0,.156-.049.187-.129l.199-.52c.039-.1-.008-.212-.106-.255-1.335-.584-1.78-1.02-1.918-1.281-.134-.256-.197-.813.264-2.02l4.754-12.46c.481-1.262.888-1.618,1.144-1.694.272-.08.889-.088,2.295.336.099.031.207-.022.245-.12l.198-.52c.039-.104-.013-.219-.116-.258Z"/><path class="cls-1" d="m71.39,224.39c-.179-.236-.322-.677-.424-1.311l-.09-.552,6.798-11.241c.983-1.625,1.582-2.108,1.911-2.228.472-.172,1.253.002,2.325.508.092.042.204.011.257-.078l.286-.477c.057-.094.026-.217-.068-.273l-6.024-3.645c-.044-.028-.101-.035-.151-.023-.051.013-.096.046-.124.091l-.288.477c-.053.088-.031.2.05.263,1.027.783,1.315,1.265,1.376,1.531.139.619-.204,1.617-1.019,2.965l-5.747,9.503-2.767-20.371c-.008-.06-.043-.112-.095-.144l-.438-.266c-.045-.028-.1-.036-.151-.023s-.096.046-.123.091l-8.167,13.505c-.975,1.614-1.593,2.087-1.938,2.199-.5.161-1.253.007-2.239-.459-.092-.044-.204-.011-.256.077l-.289.477c-.028.045-.036.1-.023.151s.045.096.091.123l6.026,3.644c.093.056.216.028.274-.067l.289-.476c.054-.088.031-.203-.053-.265-1.061-.777-1.364-1.261-1.431-1.527-.148-.62.191-1.618,1.007-2.967l4.863-8.041,2.403,17.704c.008.06.043.112.095.144l4.378,2.646c.032.02.068.029.104.029.067,0,.133-.034.171-.097l.288-.476c.056-.093.029-.213-.062-.271-.494-.32-.838-.606-1.024-.851Z"/><path class="cls-1" d="m56.116,205.909c-.017-.693-.157-1.493-.417-2.38l-.867-2.886c-.494-1.634-.765-2.783-.805-3.412-.047-.961.228-1.768.841-2.467.668-.761,1.438-1.146,2.291-1.146h.015c.868.004,1.652.309,2.33.903,1.273,1.118,1.905,2.58,1.878,4.343-.015,1.024-.275,2.211-.772,3.529-.029.078-.007.166.055.221l.518.454c.043.038.101.053.159.048.057-.008.108-.04.14-.089l3.54-5.386c.055-.083.04-.193-.035-.26l-.494-.435c-.074-.064-.184-.065-.26-.004-.171.143-.363.251-.573.323-.06.02-.24.082-.55-.189-.042-.038-.216-.258-.914-1.488-.535-.945-1.167-1.74-1.877-2.364-1.406-1.235-2.939-1.862-4.557-1.862h-.035c-1.637.011-3.011.634-4.084,1.854-.798.909-1.238,1.941-1.307,3.07-.053,1.104.21,2.607.783,4.47l.907,2.958c.332,1.079.493,1.981.479,2.685-.009.668-.253,1.28-.728,1.819-.53.604-1.14.893-1.855.841-.729-.036-1.391-.312-1.968-.821-.757-.664-1.292-1.628-1.588-2.864-.294-1.23,0-2.724.875-4.438.042-.081.022-.181-.046-.241l-.539-.474c-.043-.037-.104-.057-.155-.048-.057.006-.107.036-.14.082l-3.717,5.231c-.06.084-.046.199.031.267l.462.405c.07.062.171.067.246.014.248-.173.47-.277.66-.311.198-.029.428.124.584.262.032.03.19.22.865,1.414.506.901,1.031,1.595,1.562,2.061,1.182,1.039,2.46,1.564,3.805,1.564.112,0,.225-.004.338-.012,1.466-.095,2.732-.737,3.763-1.91.785-.894,1.175-2.014,1.16-3.332Z"/><path class="cls-1" d="m44.281,199.462c.006-.054-.01-.108-.045-.149l-.47-.562c-.061-.074-.167-.093-.251-.047-1.38.772-2.435,1.09-3.136.946s-1.578-.842-2.608-2.073l-.95-1.14,11.356-9.479c1.177-.981,1.742-1.163,2.015-1.143.27.021.814.272,1.872,1.359.072.075.19.08.272.014l.427-.356c.084-.07.096-.196.025-.281l-5.6-6.711c-.034-.041-.083-.066-.135-.071-.056-.007-.106.012-.146.046l-.427.356c-.08.067-.095.185-.034.271.857,1.191,1.051,1.779,1.063,2.062.011.267-.194.765-1.231,1.631l-11.626,9.702-.941-1.128c-1.076-1.289-1.61-2.282-1.587-2.954.022-.679.526-1.66,1.5-2.916.058-.074.056-.178-.005-.25l-.46-.551c-.035-.042-.084-.067-.139-.071-.055-.011-.107.015-.147.05l-3.809,3.388c-.081.071-.09.194-.021.277l10.863,13.017c.039.048.096.072.153.072.043,0,.086-.014.123-.042l4.023-3.129c.043-.033.07-.083.076-.137Z"/><path class="cls-1" d="m28.729,182.551l11.352-7.002c1.15-.708,1.688-.743,1.937-.649.266.102.762.473,1.618,1.662.062.086.179.109.267.053l.474-.291c.045-.027.078-.072.09-.124.013-.051.004-.105-.024-.151l-4.658-7.552c-.028-.045-.073-.077-.125-.089-.051-.014-.106-.004-.151.024l-.473.292c-.089.055-.121.17-.072.263.679,1.301.788,1.91.76,2.192-.028.265-.302.729-1.451,1.439l-11.351,7.002c-1.102.679-1.661.72-1.934.635-.284-.087-.794-.442-1.619-1.645-.061-.089-.18-.112-.27-.057l-.473.292c-.094.058-.123.181-.065.275l4.657,7.551c.038.062.104.096.17.096.036,0,.072-.01.105-.03l.474-.292c.091-.056.122-.173.07-.267-.705-1.276-.794-1.893-.744-2.186.048-.283.336-.764,1.436-1.442Z"/><path class="cls-1" d="m25.722,174.171c.021-.051.021-.107,0-.156l-.291-.671c-.038-.089-.131-.134-.228-.116-1.542.351-2.645.357-3.275.021-.633-.337-1.277-1.254-1.915-2.727l-.589-1.361,13.572-5.881c1.408-.611,2-.622,2.254-.528.254.097.705.493,1.413,1.834.049.093.162.13.256.09l.511-.221c.049-.021.087-.061.107-.11.02-.049.019-.104-.002-.152l-3.475-8.021c-.021-.049-.061-.088-.11-.106-.049-.021-.104-.018-.153.002l-.511.222c-.096.042-.144.151-.109.25.485,1.382.505,2.002.437,2.278-.065.259-.403.68-1.642,1.216l-13.895,6.021-.584-1.348c-.667-1.541-.898-2.646-.688-3.283.214-.646.976-1.444,2.263-2.372.076-.055.104-.155.066-.241l-.285-.658c-.021-.05-.062-.089-.113-.108-.051-.018-.106-.017-.156.007l-4.612,2.172c-.098.046-.142.161-.099.26l6.741,15.557c.033.075.106.121.184.121.024,0,.049-.005.073-.014l4.744-1.864c.05-.021.091-.06.111-.109Z"/><path class="cls-1" d="m15.588,154.517l9.145-2.041c1.836-.41,3.268-1.066,4.254-1.951,1.852-1.646,2.426-4.115,1.707-7.341-.728-3.261-2.317-5.268-4.724-5.965-1.299-.374-2.994-.333-5.035.124l-7.615,1.699c-1.845.412-2.605.31-2.92.15-.45-.227-.859-.874-1.217-1.924-.034-.096-.131-.152-.233-.131l-.544.121c-.052.012-.097.043-.125.088-.028.045-.038.1-.026.151l1.513,6.772c.012.052.043.097.088.125.045.027.1.036.151.026l.542-.121c.101-.022.167-.117.155-.22-.126-1.034-.043-1.776.247-2.205.198-.293.835-.73,2.743-1.157l7.616-1.7c1.829-.407,3.243-.487,4.203-.241,1.696.44,2.817,1.83,3.331,4.13.472,2.122.053,3.682-1.281,4.768-.737.589-1.87,1.057-3.366,1.391l-9.358,2.089c-1.263.281-1.794.152-2.017-.008-.23-.163-.587-.635-.977-1.954-.03-.102-.132-.161-.236-.139l-.543.122c-.107.024-.175.131-.151.239l1.854,8.302c.021.093.104.156.195.156.014,0,.029-.002.043-.005l.543-.121c.102-.022.169-.12.154-.224-.191-1.339-.066-1.909.073-2.152.136-.235.56-.575,1.812-.854Z"/><path class="cls-1" d="m13.342,134.715c.054,0,.105-.021.143-.061.038-.038.058-.091.057-.145l-.02-.731c-.002-.097-.073-.178-.168-.192-1.562-.249-2.588-.651-3.049-1.197-.463-.55-.72-1.642-.765-3.245l-.041-1.482,14.784-.417c1.533-.045,2.091.165,2.29.348.2.185.472.721.63,2.227.011.104.121.19.204.18l.557-.016c.053-.002.104-.024.14-.062.036-.039.056-.09.054-.144l-.247-8.736c-.003-.108-.092-.194-.2-.194-.001,0-.003,0-.005,0l-.556.015c-.105.002-.19.086-.194.191-.064,1.468-.276,2.049-.442,2.278-.156.216-.625.481-1.975.52l-15.138.427-.042-1.469c-.047-1.678.149-2.789.582-3.303.438-.52,1.441-.979,2.981-1.363.091-.022.154-.105.151-.2l-.021-.717c-.001-.054-.025-.105-.064-.142-.04-.036-.092-.055-.147-.052l-5.089.305c-.108.006-.191.097-.188.206l.479,16.947c.003.107.091.193.198.194l5.097.031h.001Z"/><path class="cls-1" d="m10.372,111.598c1.606,2.333,4.043,3.782,7.243,4.308.732.12,1.443.18,2.132.18,2.179,0,4.142-.599,5.855-1.79,2.214-1.547,3.571-3.759,4.033-6.575.431-2.629-.068-5.049-1.485-7.192-1.587-2.39-4.04-3.873-7.289-4.406-3.2-.526-5.967.064-8.222,1.754-2.084,1.556-3.367,3.719-3.812,6.429-.442,2.698.077,5.151,1.544,7.292h0Zm-.08-7.06c.271-1.649,1.21-2.983,2.791-3.964,1.045-.648,2.442-.973,4.172-.973.906,0,1.904.089,2.991.268,3.125.513,5.322,1.5,6.532,2.933,1.201,1.423,1.67,2.995,1.394,4.671-.28,1.714-1.248,3.062-2.876,4.006-1.639.952-4.017,1.181-7.066.681-3.059-.502-5.243-1.482-6.492-2.913-1.239-1.42-1.725-3.004-1.446-4.708Z"/><path class="cls-1" d="m15.143,82.832c.093.043.208.01.26-.081.664-1.157,1.112-1.513,1.371-1.607.254-.093.802-.085,1.969.479l12.101,5.853c1.196.579,1.521.996,1.583,1.244.065.262.05.835-.397,2.082-.034.096.009.203.102.248l.505.244c.028.014.058.02.087.02.074,0,.146-.042.18-.113l3.655-7.558c.987-2.042,1.568-3.915,1.728-5.566.096-.912.047-1.871-.145-2.85-.307-1.548-.955-2.925-1.926-4.09-.969-1.162-2.157-2.088-3.531-2.752-3.821-1.849-7.281-1.56-10.284.856-1.657,1.328-3.106,3.262-4.309,5.748l-3.546,7.333c-.023.047-.026.103-.009.153.018.05.054.091.102.114l.505.244Zm15.955-11.083c3.047,1.474,4.727,3.563,4.992,6.21.174,1.735-.249,3.67-1.256,5.751-.388.801-.642,1.073-.788,1.161-.183.111-.467.074-.844-.107l-6.62-3.202,1.165-2.535c.659-1.362,1.156-1.76,1.457-1.854.457-.14,1.251-.062,2.36.231.092.023.189-.02.231-.106l.309-.638c.023-.047.026-.103.009-.153-.018-.05-.054-.091-.102-.114l-6.283-3.039c-.047-.023-.102-.026-.153-.009-.05.018-.091.054-.114.102l-.309.638c-.042.086-.016.191.062.248.919.676,1.474,1.245,1.648,1.692.115.295.113.935-.552,2.308l-1.164,2.535-5.783-2.797c-.384-.186-.588-.384-.608-.589-.017-.167.036-.516.382-1.232,1.16-2.399,2.698-4.062,4.571-4.942,2.181-1.023,4.667-.874,7.388.442Z"/><path class="cls-1" d="m42.048,62.552c1.044,2.121,1.634,3.5,1.752,4.097.111.564-.034,1.131-.444,1.73-.058.084-.043.197.034.264l.421.364c.037.031.083.049.131.049.005,0,.01,0,.015,0,.053-.004.102-.029.137-.069l3.883-4.498c.035-.041.052-.093.048-.146-.003-.053-.028-.102-.068-.137l-.421-.363c-.078-.068-.196-.063-.271.009-.601.589-.917.801-1.074.873-.346.152-.659.092-.985-.189-.173-.149-.37-.416-.586-.791-.221-.385-.791-1.457-1.74-3.276l4.989-5.777,2.841.935c.427.136.794.28,1.124.441.404.197.569.307.637.365.398.343.335.549.315.615-.053.17-.247.554-.865,1.411-.061.084-.047.201.031.269l.422.364c.084.073.21.062.282-.021l4.983-5.771c.035-.041.052-.093.048-.146-.004-.053-.028-.102-.069-.137l-.422-.363c-.076-.066-.188-.066-.262,0-.501.439-.934.685-1.288.73-.249.033-.85-.02-2.277-.455l-17.748-5.453c-.074-.022-.158,0-.21.061l-.39.452c-.052.061-.063.146-.028.219l7.055,14.343Zm4.157-8.406l-4.11,4.76-3.646-7.311,7.756,2.551Z"/><path class="cls-1" d="m53.054,42.028c.683.114,1.495.128,2.415.041l3-.307c1.697-.174,2.875-.223,3.501-.143.939.132,1.7.567,2.263,1.293.633.814.858,1.625.688,2.48-.169.853-.616,1.564-1.327,2.116-1.339,1.039-2.896,1.384-4.622,1.023-1-.208-2.117-.688-3.319-1.427-.07-.044-.162-.04-.227.013l-.543.422c-.046.035-.074.089-.077.146s.019.114.06.154l4.618,4.496c.039.038.089.057.14.057.043,0,.086-.014.123-.042l.521-.403c.078-.061.1-.168.053-.254-.107-.195-.177-.405-.208-.625-.009-.062-.037-.25.289-.502.046-.035.297-.165,1.634-.616,1.031-.347,1.933-.816,2.679-1.396,1.49-1.156,2.397-2.554,2.696-4.157.3-1.611-.052-3.079-1.046-4.361-.742-.957-1.672-1.584-2.767-1.866-1.074-.262-2.6-.287-4.538-.077l-3.077.329c-1.124.123-2.04.11-2.727-.039-.653-.134-1.208-.49-1.648-1.058-.491-.634-.646-1.282-.475-1.982.174-.707.572-1.305,1.18-1.776.795-.617,1.842-.958,3.113-1.016,1.269-.052,2.675.515,4.192,1.699.072.057.173.057.246,0l.567-.439c.045-.035.073-.087.077-.143.004-.057-.016-.112-.055-.153l-4.434-4.641c-.071-.074-.186-.081-.267-.02l-.486.377c-.073.057-.098.156-.06.241.124.274.185.511.18.705-.002.162-.126.338-.368.525-.044.033-.284.155-1.551.58-.983.328-1.764.713-2.32,1.144-1.348,1.046-2.125,2.316-2.308,3.774-.186,1.457.206,2.821,1.163,4.056.727.937,1.752,1.533,3.052,1.77Z"/><path class="cls-1" d="m61.52,31.519c.025.048.068.084.12.101.055.016.109.01.156-.017l.64-.355c.084-.047.123-.146.093-.238-.498-1.501-.612-2.597-.338-3.257.275-.664,1.126-1.394,2.53-2.171l1.298-.718,7.166,12.94c.743,1.341.814,1.933.743,2.193-.072.262-.423.75-1.688,1.583-.087.058-.116.172-.065.264l.269.486c.026.046.069.081.12.096.018.005.037.008.055.008.034,0,.067-.009.097-.025l7.647-4.234c.047-.025.081-.069.096-.12.015-.051.008-.106-.018-.152l-.271-.486c-.052-.093-.164-.128-.259-.084-1.333.617-1.946.697-2.225.656-.263-.04-.714-.334-1.37-1.516l-7.335-13.248,1.285-.711c1.469-.813,2.545-1.154,3.201-1.002.662.149,1.53.83,2.581,2.022.062.071.165.087.247.042l.627-.347c.047-.026.082-.07.096-.123s.007-.108-.021-.155l-2.609-4.38c-.056-.093-.177-.124-.269-.072l-14.83,8.213c-.095.052-.13.169-.082.266l2.314,4.543Z"/><path class="cls-1" d="m101.071,29.378c-.553.127-1.038.155-1.437.08-.401-.075-.851-.268-1.337-.572l-7.992-5.056c1.371-.754,2.387-1.651,3.021-2.669.695-1.116.797-2.425.304-3.891-.736-2.183-2.334-3.336-4.75-3.427-1.258-.052-2.725.209-4.375.766l-7.865,2.648c-.104.035-.161.148-.126.253l.176.527c.033.098.133.155.238.131,1.002-.249,1.693-.281,2.051-.097.243.125.617.521,1.015,1.697l4.143,12.308c.474,1.403.457,1.998.358,2.25-.096.247-.472.658-1.72,1.212-.094.042-.142.148-.108.247l.178.527c.028.083.106.136.189.136.021,0,.042-.003.064-.011l7.895-2.658c.05-.017.092-.053.115-.101.023-.048.027-.103.01-.153l-.179-.527c-.033-.098-.134-.158-.237-.13-1.316.32-1.897.26-2.151.152-.245-.103-.625-.483-1.039-1.715l-1.826-5.422.953-.38,9.97,6.307c.05.033.114.041.171.021l4.575-1.541c.104-.035.161-.148.126-.253l-.176-.527c-.033-.097-.133-.157-.235-.131Zm-13.91-13.513c1.479.138,2.456.971,2.986,2.547.552,1.638.216,2.958-1.027,4.037-.718.609-2.034,1.283-3.916,2.004l-2.289-6.797c-.116-.343-.129-.595-.035-.712.052-.066.286-.256,1.327-.606.969-.327,1.822-.492,2.544-.492.142,0,.278.006.409.019Z"/><path class="cls-1" d="m118.412,17.918c-.426-3.214-1.794-5.69-4.066-7.359-2.097-1.542-4.537-2.143-7.259-1.779-2.709.359-4.906,1.568-6.529,3.595h0c-1.766,2.214-2.444,4.966-2.018,8.183.407,3.059,1.706,5.473,3.861,7.176,1.736,1.365,3.73,2.052,5.946,2.052.494,0,1-.034,1.516-.103,2.643-.351,4.813-1.532,6.451-3.51,1.827-2.212,2.533-4.989,2.099-8.253Zm-4.672,7.6c-1.013,1.563-2.381,2.469-4.065,2.692-1.723.228-3.292-.306-4.668-1.589-1.388-1.293-2.297-3.502-2.703-6.563-.409-3.072-.105-5.447.901-7.059.998-1.598,2.373-2.523,4.085-2.75.25-.033.497-.05.742-.05,1.378,0,2.675.526,3.863,1.57,1.406,1.235,2.333,3.473,2.755,6.649.417,3.14.111,5.528-.909,7.1Z"/><path class="cls-1" d="m132.689,14.505l-.702-.029c-.101,0-.183.061-.204.155-.252,1.103-.551,1.832-.888,2.167-.223.221-.8.471-2.317.41l-4.145-.17.267-6.485c.02-.476.112-.629.152-.674.025-.029.149-.125.619-.106l4.108.169c1.621.067,2.704.286,3.221.648.499.35.823,1.192.964,2.504.011.099.092.174.191.178l.835.034c.034,0,.105-.017.146-.054.039-.037.062-.088.062-.142l.072-4.29c.002-.108-.084-.199-.192-.203l-15.957-.656c-.13.012-.203.082-.208.191l-.023.556c-.004.105.073.195.177.207,1.313.147,1.812.424,2,.631.187.206.398.713.345,1.962l-.533,12.975c-.063,1.534-.29,2.066-.469,2.242-.182.177-.693.408-2.102.501-.102.007-.182.089-.187.191l-.023.556c-.002.053.017.104.053.144.036.039.086.062.139.064l8.383.345s.005,0,.008,0c.05,0,.099-.019.136-.053.039-.036.062-.086.064-.139l.022-.556c.004-.104-.073-.195-.177-.207-1.342-.159-1.861-.427-2.061-.625-.193-.19-.412-.686-.357-1.971l.26-6.354,4.145.17c1.501.062,2.059.358,2.262.595.309.357.552,1.11.723,2.237.014.095.093.166.188.17l.703.029c.053.005.105-.017.145-.053.039-.036.062-.086.064-.139l.283-6.919c.004-.11-.082-.204-.191-.208Z"/><path class="cls-1" d="m145.9,11.57c.105.023.203-.059.222-.164l.096-.549c.009-.052-.003-.106-.033-.149-.031-.043-.077-.073-.13-.082l-8.741-1.52c-.054-.01-.105.002-.149.034-.043.031-.073.077-.082.129l-.095.548c-.018.105.05.206.153.229,1.421.317,1.941.66,2.128.892.181.224.35.758.128,2.032l-2.285,13.14c-.23,1.331-.561,1.758-.797,1.881-.252.131-.86.256-2.316.109-.101-.005-.2.062-.218.165l-.096.549c-.009.052.003.106.033.149.031.043.077.073.13.082l8.74,1.52c.012.002.023.003.034.003.096,0,.18-.069.197-.166l.096-.549c.018-.103-.047-.203-.149-.229-1.423-.354-1.951-.676-2.144-.885-.181-.195-.348-.708-.116-2.039l2.285-13.141c.221-1.273.56-1.719.806-1.869.253-.154.854-.302,2.304-.122Z"/><path class="cls-1" d="m158.016,29.525c.354-1.157.333-2.279-.067-3.337-.403-1.028-1.261-2.292-2.548-3.756l-2.039-2.327c-.745-.847-1.262-1.604-1.537-2.252-.266-.611-.294-1.269-.083-1.956.235-.767.677-1.267,1.347-1.529.681-.264,1.397-.284,2.133-.058.961.295,1.844.956,2.624,1.962.772,1.001,1.116,2.483,1.021,4.406-.004.091.054.174.142.201l.687.211c.055.017.113.009.161-.02.049-.029.083-.078.094-.133l1.244-6.295c.02-.101-.04-.2-.138-.23l-.587-.18c-.089-.028-.183.01-.23.089-.154.259-.314.445-.474.553-.136.09-.349.091-.643.001-.052-.018-.288-.143-1.367-.937-.835-.616-1.599-1.032-2.27-1.237-1.63-.502-3.116-.407-4.416.282-1.298.689-2.188,1.794-2.647,3.285-.349,1.134-.246,2.316.308,3.515.301.625.757,1.297,1.356,1.998l1.976,2.278c1.12,1.29,1.839,2.227,2.134,2.783.431.844.513,1.717.243,2.594-.298.973-.848,1.643-1.633,1.99-.806.357-1.622.399-2.495.131-1.619-.497-2.795-1.57-3.495-3.189-.405-.939-.654-2.129-.741-3.536-.005-.083-.061-.155-.141-.179l-.659-.202c-.057-.017-.115-.009-.164.021-.05.031-.083.081-.092.138l-1.021,6.364c-.016.099.043.194.139.223l.63.193c.093.027.193-.015.238-.103.1-.202.23-.38.392-.53.045-.043.183-.175.576-.054.055.017.305.148,1.444.982.878.644,1.78,1.111,2.683,1.389.81.249,1.593.373,2.344.373.92,0,1.792-.187,2.608-.559,1.491-.682,2.488-1.813,2.966-3.365Z"/><path class="cls-1" d="m166.735,18.777c.118.261.148.82-.383,2l-5.479,12.159c-.555,1.231-.979,1.562-1.239,1.623-.275.066-.897.036-2.272-.469-.101-.039-.209.009-.252.105l-.229.508c-.045.101,0,.219.101.264l8.089,3.646c.026.012.054.018.082.018.024,0,.048-.004.071-.013.049-.019.089-.057.111-.105l.229-.508c.043-.096.005-.208-.088-.258-1.29-.696-1.722-1.141-1.856-1.391-.126-.235-.159-.773.395-2.004l5.481-12.159c.53-1.178.97-1.525,1.245-1.61.285-.085.904-.08,2.263.455.101.039.212-.007.256-.104l.229-.507c.021-.048.023-.103.005-.153-.02-.05-.057-.09-.105-.111l-8.09-3.646c-.1-.046-.22,0-.265.1l-.229.507c-.044.097-.003.212.092.26,1.299.661,1.717,1.123,1.84,1.393Z"/><path class="cls-1" d="m170.043,29.642c-1.544,2.439-2.092,4.985-1.628,7.568.508,2.797,2.163,5.101,4.921,6.846,1.667,1.055,3.526,1.59,5.528,1.59h.055c1.189-.008,2.312-.195,3.339-.557.096-.034.151-.133.129-.232l-.172-.768c-.023-.106-.129-.173-.233-.153-1.19.233-2.22.328-3.061.282-1.46-.07-2.848-.515-4.124-1.323-1.754-1.109-2.806-2.701-3.126-4.73-.319-2.04.227-4.192,1.623-6.398,1.521-2.406,3.287-3.967,5.247-4.638,1.947-.667,3.798-.453,5.508.628,1.694,1.073,2.659,2.574,2.865,4.461.104,1.007-.031,2.184-.4,3.497-.024.085.011.176.085.223l.581.368c.046.03.104.039.155.025.053-.013.099-.047.125-.094l3.367-5.839c.054-.093.024-.212-.065-.269l-.532-.337c-.077-.049-.174-.041-.239.019-.22.193-.446.288-.692.288-.003,0-.006,0-.009,0-.263-.003-.493-.069-.702-.202-.038-.025-.245-.199-1.319-1.398h0c-.803-.894-1.68-1.643-2.604-2.229-2.667-1.688-5.438-2.176-8.233-1.445-2.656.698-4.805,2.319-6.386,4.818Z"/><path class="cls-1" d="m182.625,47.51c-.567.08-1.127-.097-1.703-.541-.081-.063-.195-.054-.266.02l-.386.399c-.077.08-.075.206.005.283l4.271,4.13c.078.077.206.076.282-.004l.386-.398c.072-.075.075-.192.007-.271-.447-.513-.721-.892-.81-1.124-.132-.347-.052-.665.245-.971.156-.163.434-.345.822-.541.401-.202,1.534-.724,3.369-1.552l5.485,5.306-1.096,2.786c-.155.411-.324.78-.503,1.096-.179.32-.313.527-.399.616-.365.376-.569.302-.633.279-.164-.061-.533-.274-1.359-.942-.081-.065-.197-.057-.27.017l-.387.399c-.037.038-.058.089-.057.143,0,.053.023.104.062.14l5.48,5.301c.038.038.089.057.139.057.052,0,.104-.021.144-.061l.388-.399c.069-.072.075-.184.014-.263-.411-.525-.633-.972-.658-1.326-.018-.254.068-.85.583-2.249l6.447-17.411c.027-.074.009-.158-.049-.213l-.429-.415c-.058-.057-.144-.072-.217-.041l-14.721,6.234c-2.18.924-3.589,1.434-4.188,1.517Zm7.828-1.264l7.505-3.227-2.984,7.599-4.521-4.372Z"/><path class="cls-1" d="m199.441,67.4c-.046.026-.08.07-.095.12-.014.051-.008.106.018.152l3.994,7.099c1.354,2.407,2.921,4.248,4.657,5.47,3.147,2.226,6.618,2.3,10.317.218,1.33-.748,2.458-1.746,3.353-2.966.897-1.223,1.459-2.637,1.669-4.201.131-.989.12-1.949-.032-2.853-.261-1.639-.958-3.472-2.069-5.449l-4.116-7.317c-.039-.069-.113-.106-.187-.102-.029.002-.059.01-.086.025l-.489.275c-.089.05-.126.159-.086.253.524,1.216.575,1.788.526,2.053-.047.251-.345.688-1.503,1.339l-11.715,6.591c-1.129.636-1.676.677-1.935.6-.264-.078-.734-.406-1.468-1.519-.057-.087-.174-.113-.265-.064l-.489.275Zm9.753,10.698c-1.924-.763-3.563-2.327-4.869-4.649-.39-.693-.464-1.038-.457-1.206.007-.206.199-.417.57-.626l5.598-3.15,1.319,2.458c.748,1.329.79,1.968.694,2.269-.146.457-.664,1.059-1.54,1.791-.074.062-.093.168-.046.251l.348.618c.026.046.07.08.12.095.052.014.107.008.152-.018l6.082-3.422c.046-.026.08-.07.095-.12.014-.051.008-.106-.018-.152l-.348-.617c-.047-.084-.147-.121-.238-.092-1.089.362-1.877.488-2.342.377-.306-.075-.827-.441-1.569-1.76l-1.32-2.458,6.409-3.606c.364-.205.646-.259.835-.159.151.078.422.334.858,1.11,1.134,2.015,1.676,3.92,1.61,5.663-.101,2.658-1.648,4.848-4.598,6.507-2.635,1.482-5.106,1.786-7.347.899Z"/><path class="cls-1" d="m214.676,92.783c-1.565,2.373-1.959,5.182-1.17,8.35.481,1.932,1.47,3.617,2.94,5.007.866.815,1.807,1.455,2.797,1.902.026.012.055.018.082.018.068,0,.134-.035.172-.097l.405-.674c.056-.093.027-.213-.064-.271-1.021-.654-1.831-1.297-2.407-1.911-1.006-1.058-1.701-2.337-2.067-3.803-.502-2.016-.163-3.893,1.007-5.58,1.176-1.696,3.057-2.876,5.592-3.507,2.762-.688,5.117-.597,6.999.271,1.865.86,3.059,2.293,3.549,4.258.485,1.945.145,3.696-1.01,5.204-.62.799-1.53,1.557-2.704,2.252-.076.045-.114.135-.093.22l.167.668c.014.053.048.098.095.125.047.027.104.034.156.019l6.468-1.897c.103-.03.163-.136.138-.24l-.151-.611c-.021-.086-.098-.148-.186-.152-.299-.013-.53-.104-.708-.277-.188-.183-.308-.389-.367-.63-.013-.054-.037-.351.011-1.924.037-1.198-.078-2.346-.343-3.41-.764-3.062-2.431-5.327-4.957-6.732-2.402-1.33-5.078-1.642-7.946-.927-2.802.699-4.956,2.162-6.403,4.349Z"/><path class="cls-1" d="m236.985,117.241c-.004-.08-.055-.15-.13-.178l-14.974-5.593c-2.219-.829-3.594-1.427-4.086-1.778-.463-.331-.754-.857-.865-1.563-.015-.101-.101-.163-.206-.169l-.556.024c-.053.002-.103.025-.139.064-.036.04-.055.091-.053.144l.262,5.935c.005.11.104.188.209.191l.556-.023c.104-.004.187-.088.191-.192.026-.678.088-1.14.183-1.371.146-.344.422-.521.846-.539.23-.011.555.048.97.173.431.13,1.612.529,3.512,1.188l.336,7.625-2.709,1.27c-.389.188-.766.339-1.12.45-.433.135-.627.167-.714.172-.512.019-.619-.17-.65-.232-.111-.226-.226-.77-.339-1.619-.014-.103-.11-.168-.207-.173l-.557.023c-.053.002-.103.025-.139.064s-.055.091-.053.144l.335,7.618c.005.107.094.191.2.191h.009l.556-.024c.1-.005.181-.082.19-.182.062-.662.208-1.138.436-1.415.159-.196.631-.569,1.968-1.231l16.654-8.21c.071-.035.114-.109.111-.188l-.027-.597Zm-4.968-.268l-7.392,3.464-.277-6.281,7.669,2.817Z"/><path class="cls-1" d="m236.465,134.326l-.547-.108c-.114-.022-.21.047-.234.151-.131.571-.282.992-.449,1.252-.162.25-.528.535-1.088.846l-.489.272-12.885-2.555c-1.865-.37-2.522-.768-2.746-1.036-.32-.386-.427-1.18-.315-2.358.01-.102-.06-.195-.16-.215l-.545-.107c-.116-.025-.215.049-.235.157l-1.37,6.907c-.021.108.049.214.157.235l.545.108c.1.023.199-.039.229-.137.387-1.232.742-1.669.971-1.817.535-.341,1.588-.358,3.135-.053l10.893,2.16-18.204,9.55c-.054.027-.092.078-.104.138l-.1.503c-.021.108.049.214.157.235l15.48,3.069c1.852.367,2.506.786,2.729,1.072.323.417.435,1.178.333,2.263-.01.102.06.194.16.215l.546.108c.013.003.026.004.039.004.039,0,.078-.012.111-.034.044-.029.074-.075.085-.127l1.369-6.907c.021-.108-.049-.214-.157-.235l-.546-.109c-.103-.024-.202.041-.231.141-.365,1.26-.717,1.71-.945,1.864-.533.349-1.587.373-3.133.066l-9.218-1.828,15.819-8.3c.054-.027.092-.078.104-.138l.997-5.018c.01-.052,0-.106-.03-.15s-.075-.074-.127-.085Z"/><path class="cls-1" d="m216.971,155.477c-1.646-1.703-2.63-2.835-2.924-3.362-.278-.503-.313-1.087-.107-1.784.029-.098-.02-.201-.113-.241l-.513-.217c-.101-.043-.22.004-.263.106l-2.316,5.471c-.021.049-.021.104,0,.153.021.049.059.088.107.109l.513.217c.096.042.207.002.255-.092.315-.6.57-.99.757-1.159.279-.249.604-.287.993-.121.211.089.48.281.801.573.332.301,1.227,1.17,2.66,2.583l-2.975,7.029-2.993-.02c-.45.002-.842-.021-1.205-.075-.445-.063-.637-.117-.718-.151-.32-.136-.484-.301-.487-.49-.003-.176.062-.597.39-1.606.032-.099-.017-.205-.112-.245l-.513-.219c-.051-.02-.104-.021-.153,0-.049.021-.088.059-.109.107l-2.973,7.021c-.021.049-.021.104,0,.153.021.049.059.088.107.109l.513.217c.025.011.052.016.078.016.068,0,.135-.036.172-.098.34-.571.676-.938,1.001-1.091.331-.156,1.107-.246,2.306-.265l18.565-.252c.079,0,.15-.049.182-.122l.232-.55c.031-.074.015-.159-.041-.217l-11.114-11.488Zm6.786,9.326l-8.164-.05,2.452-5.791,5.712,5.841Z"/><path class="cls-1" d="m219.867,181.925c-.086-.062-.202-.049-.27.03-.842.973-1.345,1.222-1.62,1.26-.26.044-.803-.068-1.806-.802l-10.479-7.669c-1.195-.875-1.524-1.37-1.589-1.633-.065-.258.005-.81.707-1.981.053-.089.029-.203-.054-.264l-.45-.329c-.09-.066-.215-.046-.279.043l-4.918,6.723c-.065.089-.046.214.043.279l.447.329c.083.062.2.049.269-.029.893-1.021,1.401-1.307,1.673-1.365.255-.058.787.034,1.838.803l4.615,3.378-.56.861-11.781.591c-.061.004-.116.033-.151.082l-2.852,3.897c-.031.043-.045.097-.036.148.008.053.036.1.079.131l.449.328c.083.062.2.05.268-.028.378-.423.757-.724,1.125-.893.371-.169.851-.271,1.422-.303l9.446-.475c-.686,1.406-.999,2.724-.931,3.923.074,1.312.745,2.44,1.994,3.354.943.69,1.916,1.036,2.91,1.036.964,0,1.948-.325,2.947-.974,1.049-.682,2.104-1.74,3.133-3.146l4.902-6.699c.031-.043.045-.097.036-.148-.008-.053-.036-.1-.079-.131l-.449-.328Zm-4.426,4.462c-.006.084-.089.374-.735,1.26-.724.988-1.443,1.69-2.141,2.089-1.29.739-2.571.621-3.91-.36-1.395-1.021-1.882-2.294-1.487-3.89.234-.911.922-2.221,2.045-3.896l5.788,4.235c.293.215.449.414.44.562Z"/><path class="cls-1" d="m205.1,200.78c-.074-.076-.196-.082-.276-.01-1.089.965-1.673,1.186-1.971,1.201-.279.023-.817-.16-1.72-1.087l-9.312-9.548c-.943-.967-1.096-1.483-1.057-1.747.04-.28.293-.845,1.268-1.942.069-.078.067-.197-.006-.272l-.388-.398c-.037-.038-.088-.06-.141-.061-.047-.003-.104.02-.143.057l-6.353,6.194c-.038.037-.06.088-.061.142,0,.053.021.104.058.142l.39.398c.073.076.193.082.271.013,1.118-.945,1.69-1.185,1.973-1.22.257-.027.775.132,1.721,1.101l9.312,9.549c.902.925,1.065,1.461,1.044,1.748-.023.296-.26.873-1.252,1.939-.072.077-.071.199.003.275l.388.398c.038.039.094.059.144.061.052,0,.103-.021.14-.057l6.352-6.194c.079-.077.081-.204.004-.283l-.388-.398Z"/><path class="cls-1" d="m183.824,196.881c.038-.567.331-1.092.871-1.559.077-.066.092-.181.034-.265l-.314-.459c-.063-.092-.187-.114-.278-.052l-4.901,3.356c-.044.03-.073.076-.083.128-.01.053,0,.106.031.15l.314.459c.06.086.178.111.264.061.732-.417,1.092-.54,1.263-.569.367-.06.659.079.902.435.13.188.253.496.364.915.116.421.385,1.57.848,3.61l-6.298,4.312-2.51-1.63c-.361-.229-.688-.468-.974-.713-.343-.296-.473-.443-.521-.516-.298-.433-.184-.615-.146-.677.09-.146.37-.464,1.192-1.143.08-.065.097-.182.038-.268l-.313-.459c-.03-.043-.076-.073-.128-.083-.052-.012-.104.002-.15.031l-6.29,4.31c-.091.062-.114.187-.052.277l.312.458c.057.084.166.113.254.066.598-.298,1.079-.422,1.433-.378.252.033.817.236,2.085,1.021l15.769,9.803c.032.021.069.03.105.03.039,0,.079-.012.113-.035l.493-.337c.065-.045.099-.126.083-.205l-3.162-15.668c-.468-2.32-.686-3.804-.648-4.409Zm-.327,7.924l1.658,7.999-6.848-4.446,5.189-3.553Z"/><path class="cls-1" d="m169.16,218.059c-.631-.28-1.414-.495-2.33-.641l-2.981-.447c-1.689-.253-2.844-.499-3.43-.729-.876-.362-1.505-.973-1.869-1.813-.41-.949-.428-1.791-.051-2.574.376-.785.986-1.364,1.812-1.722,1.556-.674,3.147-.622,4.729.156.916.449,1.879,1.191,2.861,2.206.057.059.146.076.223.044l.631-.272c.054-.023.094-.067.111-.123.018-.055.011-.115-.02-.165l-3.356-5.503c-.052-.085-.16-.117-.25-.079l-.605.262c-.091.039-.14.139-.114.234.056.213.071.428.047.654-.007.063-.027.254-.404.417-.053.022-.328.086-1.737.19-1.087.081-2.076.312-2.939.688-1.73.749-2.957,1.878-3.645,3.356-.692,1.485-.716,2.994-.069,4.485.48,1.11,1.226,1.949,2.218,2.494.971.518,2.442.922,4.376,1.201l3.062.444c1.117.16,2.002.4,2.632.714.607.296,1.043.766,1.333,1.436.319.733.309,1.4-.031,2.036-.345.642-.878,1.123-1.583,1.429-.923.401-2.023.471-3.27.212-1.237-.26-2.461-1.164-3.639-2.688-.056-.073-.153-.098-.237-.062l-.659.285c-.053.022-.093.066-.11.12-.019.053-.013.112.015.161l3.142,5.596c.037.065.104.103.175.103.026,0,.054-.006.079-.017l.565-.244c.085-.036.134-.127.118-.218-.051-.295-.051-.541,0-.728.044-.157.209-.298.487-.418.051-.021.314-.079,1.648-.176,1.033-.074,1.884-.254,2.529-.533,1.566-.679,2.635-1.717,3.174-3.083.542-1.367.501-2.786-.12-4.218-.471-1.089-1.316-1.921-2.516-2.472Z"/></g></g></svg>